# xmcd
#
# Track frame offsets:
# 150
# 11898
# 25944
# 34241
# 42669
# 54266
# 64704
# 72923
# 87168
# 99653
#
# Disc length: 1515 seconds
#
#
# Revision: 0
# Processed by: cddbd v1.5.2PL0 Copyright (c) Steve Scherf et al.
# Submitted via: FreeRIP 2.942 
#
DISCID=8405e90a
DTITLE=the Countdown Kids - Kids Pop Country, Disc 1 of 4
DYEAR=2006
DGENRE=Country
TTITLE0=Thank God I'm a Country Boy
TTITLE1=Achy Breaky Heart
TTITLE2=Hey Good Lookin'
TTITLE3=Home on the Range
TTITLE4=King of the Road
TTITLE5=May the Bird of Paradise Fly Up Your Nose
TTITLE6=Yellow Rose of Texas
TTITLE7=Coat of Many Colors
TTITLE8=Ballad of Davy Crockett
TTITLE9=God Bless the U.S.A.
EXTD=
EXTT0=
EXTT1=
EXTT2=
EXTT3=
EXTT4=
EXTT5=
EXTT6=
EXTT7=
EXTT8=
EXTT9=
PLAYORDER=
